<?xml version="1.0" encoding="UTF-8" standalone="no"?>
<!-- Created with Inkscape (http://www.inkscape.org/) -->
<svg
   xmlns:dc="http://purl.org/dc/elements/1.1/"
   xmlns:cc="http://web.resource.org/cc/"
   xmlns:rdf="http://www.w3.org/1999/02/22-rdf-syntax-ns#"
   xmlns:svg="http://www.w3.org/2000/svg"
   xmlns="http://www.w3.org/2000/svg"
   xmlns:sodipodi="http://sodipodi.sourceforge.net/DTD/sodipodi-0.dtd"
   xmlns:inkscape="http://www.inkscape.org/namespaces/inkscape"
   version="1.0"
   width="104.32874"
   height="499.27481"
   id="svg2178"
   sodipodi:version="0.32"
   inkscape:version="0.44"
   sodipodi:docname="Sleep Cycle.svg"
   sodipodi:docbase="C:\Documents and Settings\Krzysiu Jarzyna\Pulpit">
  <metadata
     id="metadata41">
    <rdf:RDF>
      <cc:Work
         rdf:about="">
        <dc:format>image/svg+xml</dc:format>
        <dc:type
           rdf:resource="http://purl.org/dc/dcmitype/StillImage" />
      </cc:Work>
    </rdf:RDF>
  </metadata>
  <sodipodi:namedview
     inkscape:window-height="573"
     inkscape:window-width="888"
     inkscape:pageshadow="2"
     inkscape:pageopacity="0.0"
     guidetolerance="10.0"
     gridtolerance="10.0"
     objecttolerance="10.0"
     borderopacity="1.0"
     bordercolor="#666666"
     pagecolor="#ffffff"
     id="base"
     inkscape:zoom="1.5101903"
     inkscape:cx="-101.71641"
     inkscape:cy="112.09846"
     inkscape:window-x="88"
     inkscape:window-y="116"
     inkscape:current-layer="svg2178" />
  <defs
     id="defs2180">
    <marker
       refX="0"
       refY="0"
       orient="auto"
       style="overflow:visible"
       id="Arrow1Mend">
      <path
         d="M 0,0 L 5,-5 L -12.5,0 L 5,5 L 0,0 z "
         transform="matrix(-0.4,0,0,-0.4,-4,0)"
         style="fill-rule:evenodd;stroke:black;stroke-width:1pt;marker-start:none"
         id="path4144" />
    </marker>
    <marker
       refX="0"
       refY="0"
       orient="auto"
       style="overflow:visible"
       id="Arrow2Lend">
      <path
         d="M 8.7185878,4.0337352 L -2.2072895,0.016013256 L 8.7185884,-4.0017078 C 6.97309,-1.6296469 6.9831476,1.6157441 8.7185878,4.0337352 z "
         transform="matrix(-1.1,0,0,-1.1,-1.1,0)"
         style="font-size:12px;fill-rule:evenodd;stroke-width:0.625;stroke-linejoin:round"
         id="path4132" />
    </marker>
    <marker
       refX="0"
       refY="0"
       orient="auto"
       style="overflow:visible"
       id="TriangleOutL">
      <path
         d="M 5.77,0 L -2.88,5 L -2.88,-5 L 5.77,0 z "
         transform="scale(0.8,0.8)"
         style="fill-rule:evenodd;stroke:black;stroke-width:1pt;marker-start:none"
         id="path4055" />
    </marker>
    <marker
       refX="0"
       refY="0"
       orient="auto"
       style="overflow:visible"
       id="TriangleOutM">
      <path
         d="M 5.77,0 L -2.88,5 L -2.88,-5 L 5.77,0 z "
         transform="scale(0.4,0.4)"
         style="fill-rule:evenodd;stroke:black;stroke-width:1pt;marker-start:none"
         id="path4052" />
    </marker>
    <marker
       refX="0"
       refY="0"
       orient="auto"
       style="overflow:visible"
       id="Arrow2Mend">
      <path
         d="M 8.7185878,4.0337352 L -2.2072895,0.016013256 L 8.7185884,-4.0017078 C 6.97309,-1.6296469 6.9831476,1.6157441 8.7185878,4.0337352 z "
         transform="scale(-0.6,-0.6)"
         style="font-size:12px;fill-rule:evenodd;stroke-width:0.625;stroke-linejoin:round"
         id="path4126" />
    </marker>
  </defs>
  <path
     style=""
     d="M 19.28288,8.001248 L 20.87663,8.001248 L 24.75554,15.319607 L 24.75554,8.001248 L 25.90398,8.001248 L 25.90398,16.749295 L 24.31023,16.749295 L 20.43132,9.430936 L 20.43132,16.749295 L 19.28288,16.749295 L 19.28288,8.001248 z M 32.40788,12.647732 C 32.66179,12.733674 32.90886,12.917267 33.1491,13.198514 C 33.38932,13.479767 33.63053,13.866485 33.87273,14.35867 L 35.0739,16.749295 L 33.80242,16.749295 L 32.68328,14.505154 C 32.39421,13.91922 32.11393,13.530548 31.84245,13.339139 C 31.57097,13.147736 31.20085,13.052033 30.7321,13.052029 L 29.44304,13.052029 L 29.44304,16.749295 L 28.25945,16.749295 L 28.25945,8.001248 L 30.93132,8.001248 C 31.93132,8.001257 32.67741,8.210241 33.1696,8.628201 C 33.66178,9.046178 33.90788,9.677036 33.90788,10.520779 C 33.90788,11.071566 33.77995,11.528597 33.5241,11.891873 C 33.26823,12.255159 32.89616,12.507112 32.40788,12.647732 L 32.40788,12.647732 z M 29.44304,8.973904 L 29.44304,12.079373 L 30.93132,12.079373 C 31.50163,12.079378 31.93229,11.947542 32.22331,11.683865 C 32.51432,11.420199 32.65983,11.032504 32.65984,10.520779 C 32.65983,10.009067 32.51432,9.623325 32.22331,9.363553 C 31.93229,9.103795 31.50163,8.973912 30.93132,8.973904 L 29.44304,8.973904 z M 36.6032,8.001248 L 42.13445,8.001248 L 42.13445,8.997342 L 37.78679,8.997342 L 37.78679,11.587186 L 41.95281,11.587186 L 41.95281,12.583279 L 37.78679,12.583279 L 37.78679,15.753201 L 42.23992,15.753201 L 42.23992,16.749295 L 36.6032,16.749295 L 36.6032,8.001248 z M 44.19695,8.001248 L 45.96062,8.001248 L 48.19304,13.954373 L 50.43718,8.001248 L 52.20085,8.001248 L 52.20085,16.749295 L 51.04656,16.749295 L 51.04656,9.067654 L 48.7907,15.067654 L 47.60124,15.067654 L 45.34538,9.067654 L 45.34538,16.749295 L 44.19695,16.749295 L 44.19695,8.001248 z M 58.68718,15.753201 L 60.62078,15.753201 L 60.62078,9.079373 L 58.51726,9.501248 L 58.51726,8.423123 L 60.60906,8.001248 L 61.79265,8.001248 L 61.79265,15.753201 L 63.72624,15.753201 L 63.72624,16.749295 L 58.68718,16.749295 L 58.68718,15.753201 z "
     id="flowRoot2186" />
  <path
     style="fill:black;fill-opacity:1;fill-rule:evenodd;stroke:none;stroke-width:0.64814949;stroke-linecap:round;stroke-miterlimit:4;stroke-opacity:1"
     d="M 0.46875,0 L 0.46875,0.3125 L 0.46875,24.5625 L 0.46875,24.875 L 0.78125,24.875 L 78.71875,24.875 L 79.03125,24.875 L 79.03125,24.5625 L 79.03125,0.3125 L 79.03125,0 L 78.71875,0 L 0.78125,0 L 0.46875,0 z M 1.125,0.65625 L 78.375,0.65625 L 78.375,24.21875 L 1.125,24.21875 L 1.125,0.65625 z "
     id="rect2202" />
  <path
     style=""
     d="M 18.84258,74.659178 L 20.43633,74.659178 L 24.31524,81.977537 L 24.31524,74.659178 L 25.46368,74.659178 L 25.46368,83.407225 L 23.86993,83.407225 L 19.99102,76.088866 L 19.99102,83.407225 L 18.84258,83.407225 L 18.84258,74.659178 z M 31.96758,79.305662 C 32.22149,79.391604 32.46856,79.575197 32.7088,79.856444 C 32.94902,80.137697 33.19023,80.524415 33.43243,81.0166 L 34.6336,83.407225 L 33.36212,83.407225 L 32.24298,81.163084 C 31.95391,80.57715 31.67363,80.188478 31.40215,79.997069 C 31.13067,79.805666 30.76055,79.709963 30.2918,79.709959 L 29.00274,79.709959 L 29.00274,83.407225 L 27.81915,83.407225 L 27.81915,74.659178 L 30.49102,74.659178 C 31.49102,74.659187 32.23711,74.868171 32.7293,75.286131 C 33.22148,75.704108 33.46758,76.334966 33.46758,77.178709 C 33.46758,77.729496 33.33965,78.186527 33.0838,78.549803 C 32.82793,78.913089 32.45586,79.165042 31.96758,79.305662 L 31.96758,79.305662 z M 29.00274,75.631834 L 29.00274,78.737303 L 30.49102,78.737303 C 31.06133,78.737308 31.49199,78.605472 31.78301,78.341795 C 32.07402,78.078129 32.21953,77.690434 32.21954,77.178709 C 32.21953,76.666997 32.07402,76.281255 31.78301,76.021483 C 31.49199,75.761725 31.06133,75.631842 30.49102,75.631834 L 29.00274,75.631834 z M 36.1629,74.659178 L 41.69415,74.659178 L 41.69415,75.655272 L 37.34649,75.655272 L 37.34649,78.245116 L 41.51251,78.245116 L 41.51251,79.241209 L 37.34649,79.241209 L 37.34649,82.411131 L 41.79962,82.411131 L 41.79962,83.407225 L 36.1629,83.407225 L 36.1629,74.659178 z M 43.75665,74.659178 L 45.52032,74.659178 L 47.75274,80.612303 L 49.99688,74.659178 L 51.76055,74.659178 L 51.76055,83.407225 L 50.60626,83.407225 L 50.60626,75.725584 L 48.3504,81.725584 L 47.16094,81.725584 L 44.90508,75.725584 L 44.90508,83.407225 L 43.75665,83.407225 L 43.75665,74.659178 z M 59.06133,82.411131 L 63.19219,82.411131 L 63.19219,83.407225 L 57.63751,83.407225 L 57.63751,82.411131 C 58.08672,81.946289 58.69903,81.322266 59.47442,80.539061 C 60.24981,79.755861 60.73711,79.250979 60.93633,79.024412 C 61.31524,78.598636 61.57988,78.238285 61.73028,77.943358 C 61.88067,77.648442 61.95586,77.358403 61.95587,77.073241 C 61.95586,76.608404 61.79277,76.229498 61.46661,75.936522 C 61.14043,75.643561 60.71563,75.497077 60.19219,75.497069 C 59.8211,75.497077 59.4295,75.56153 59.01739,75.690428 C 58.60528,75.819342 58.16485,76.014654 57.6961,76.276366 L 57.6961,75.081053 C 58.17266,74.889655 58.61797,74.745124 59.03204,74.647459 C 59.4461,74.549812 59.825,74.500984 60.16876,74.500975 C 61.075,74.500984 61.79766,74.727546 62.33673,75.180662 C 62.87578,75.633795 63.14531,76.239263 63.14532,76.997069 C 63.14531,77.35645 63.07793,77.69727 62.94317,78.01953 C 62.8084,78.3418 62.56328,78.721683 62.20782,79.159178 C 62.11016,79.272463 61.79961,79.599611 61.27618,80.140623 C 60.75274,80.681642 60.01446,81.438477 59.06133,82.411131 L 59.06133,82.411131 z "
     id="flowRoot5049" />
  <path
     style="fill:black;fill-opacity:1;fill-rule:evenodd;stroke:none;stroke-width:0.64814949;stroke-linecap:round;stroke-miterlimit:4;stroke-opacity:1"
     d="M 0.03125,66.65625 L 0.03125,66.96875 L 0.03125,91.21875 L 0.03125,91.53125 L 0.34375,91.53125 L 78.28125,91.53125 L 78.59375,91.53125 L 78.59375,91.21875 L 78.59375,66.96875 L 78.59375,66.65625 L 78.28125,66.65625 L 0.34375,66.65625 L 0.03125,66.65625 z M 0.6875,67.3125 L 77.9375,67.3125 L 77.9375,90.875 L 0.6875,90.875 L 0.6875,67.3125 z "
     id="rect5057" />
  <path
     style=""
     d="M 18.8426,142.65912 L 20.43635,142.65912 L 24.31526,149.97748 L 24.31526,142.65912 L 25.4637,142.65912 L 25.4637,151.40716 L 23.86995,151.40716 L 19.99104,144.08881 L 19.99104,151.40716 L 18.8426,151.40716 L 18.8426,142.65912 z M 31.9676,147.3056 C 32.22151,147.39154 32.46858,147.57514 32.70882,147.85638 C 32.94904,148.13764 33.19025,148.52435 33.43245,149.01654 L 34.63362,151.40716 L 33.36214,151.40716 L 32.243,149.16302 C 31.95393,148.57709 31.67365,148.18842 31.40217,147.99701 C 31.13069,147.80561 30.76057,147.7099 30.29182,147.7099 L 29.00276,147.7099 L 29.00276,151.40716 L 27.81917,151.40716 L 27.81917,142.65912 L 30.49104,142.65912 C 31.49104,142.65913 32.23713,142.86811 32.72932,143.28607 C 33.2215,143.70405 33.4676,144.33491 33.4676,145.17865 C 33.4676,145.72944 33.33967,146.18647 33.08382,146.54974 C 32.82795,146.91303 32.45588,147.16498 31.9676,147.3056 L 31.9676,147.3056 z M 29.00276,143.63177 L 29.00276,146.73724 L 30.49104,146.73724 C 31.06135,146.73725 31.49201,146.60541 31.78303,146.34173 C 32.07404,146.07807 32.21955,145.69037 32.21956,145.17865 C 32.21955,144.66694 32.07404,144.28119 31.78303,144.02142 C 31.49201,143.76166 31.06135,143.63178 30.49104,143.63177 L 29.00276,143.63177 z M 36.16292,142.65912 L 41.69417,142.65912 L 41.69417,143.65521 L 37.34651,143.65521 L 37.34651,146.24506 L 41.51253,146.24506 L 41.51253,147.24115 L 37.34651,147.24115 L 37.34651,150.41107 L 41.79964,150.41107 L 41.79964,151.40716 L 36.16292,151.40716 L 36.16292,142.65912 z M 43.75667,142.65912 L 45.52034,142.65912 L 47.75276,148.61224 L 49.9969,142.65912 L 51.76057,142.65912 L 51.76057,151.40716 L 50.60628,151.40716 L 50.60628,143.72552 L 48.35042,149.72552 L 47.16096,149.72552 L 44.9051,143.72552 L 44.9051,151.40716 L 43.75667,151.40716 L 43.75667,142.65912 z M 61.62776,146.69037 C 62.19416,146.81147 62.63654,147.06342 62.95491,147.44623 C 63.27326,147.82904 63.43244,148.3017 63.43245,148.8642 C 63.43244,149.72748 63.13557,150.39545 62.54182,150.8681 C 61.94807,151.34076 61.10432,151.57709 60.01057,151.57709 C 59.64338,151.57709 59.26545,151.54095 58.87678,151.46869 C 58.48811,151.39642 58.08674,151.28802 57.67268,151.14349 L 57.67268,150.00091 C 58.00081,150.19232 58.36018,150.33685 58.75081,150.43451 C 59.14143,150.53217 59.54963,150.58099 59.97542,150.58099 C 60.7176,150.58099 61.28303,150.43451 61.67171,150.14154 C 62.06037,149.84857 62.25471,149.42279 62.25471,148.8642 C 62.25471,148.34857 62.07404,147.94525 61.71272,147.65423 C 61.35139,147.36322 60.84846,147.21772 60.20393,147.21771 L 59.1844,147.21771 L 59.1844,146.24506 L 60.25081,146.24506 C 60.83283,146.24506 61.27815,146.12885 61.58675,145.89642 C 61.89533,145.66401 62.04963,145.32905 62.04964,144.89154 C 62.04963,144.44233 61.89045,144.0976 61.5721,143.85736 C 61.25373,143.61713 60.79768,143.49702 60.20393,143.49701 C 59.87971,143.49702 59.53205,143.53217 59.16096,143.60248 C 58.78987,143.6728 58.38167,143.78217 57.93635,143.9306 L 57.93635,142.87591 C 58.38557,142.75092 58.80647,142.65717 59.19905,142.59466 C 59.59162,142.53217 59.96174,142.50092 60.3094,142.50091 C 61.20783,142.50092 61.91877,142.70502 62.44221,143.11322 C 62.96565,143.52143 63.22736,144.07319 63.22737,144.76849 C 63.22736,145.25287 63.08869,145.66205 62.81135,145.99603 C 62.534,146.33002 62.13947,146.56147 61.62776,146.69037 L 61.62776,146.69037 z "
     id="flowRoot5061" />
  <path
     style="fill:black;fill-opacity:1;fill-rule:evenodd;stroke:none;stroke-width:0.64814949;stroke-linecap:round;stroke-miterlimit:4;stroke-opacity:1"
     d="M 0.03125,134.65625 L 0.03125,134.96875 L 0.03125,159.21875 L 0.03125,159.53125 L 0.34375,159.53125 L 78.28125,159.53125 L 78.59375,159.53125 L 78.59375,159.21875 L 78.59375,134.96875 L 78.59375,134.65625 L 78.28125,134.65625 L 0.34375,134.65625 L 0.03125,134.65625 z M 0.6875,135.3125 L 77.9375,135.3125 L 77.9375,158.875 L 0.6875,158.875 L 0.6875,135.3125 z "
     id="rect5069" />
  <path
     style=""
     d="M 18.8426,209.32922 L 20.43635,209.32922 L 24.31526,216.64758 L 24.31526,209.32922 L 25.4637,209.32922 L 25.4637,218.07727 L 23.86995,218.07727 L 19.99104,210.75891 L 19.99104,218.07727 L 18.8426,218.07727 L 18.8426,209.32922 z M 31.9676,213.9757 C 32.22151,214.06164 32.46858,214.24524 32.70882,214.52648 C 32.94904,214.80774 33.19025,215.19446 33.43245,215.68664 L 34.63362,218.07727 L 33.36214,218.07727 L 32.243,215.83312 C 31.95393,215.24719 31.67365,214.85852 31.40217,214.66711 C 31.13069,214.47571 30.76057,214.38 30.29182,214.38 L 29.00276,214.38 L 29.00276,218.07727 L 27.81917,218.07727 L 27.81917,209.32922 L 30.49104,209.32922 C 31.49104,209.32923 32.23713,209.53821 32.72932,209.95617 C 33.2215,210.37415 33.4676,211.00501 33.4676,211.84875 C 33.4676,212.39954 33.33967,212.85657 33.08382,213.21984 C 32.82795,213.58313 32.45588,213.83508 31.9676,213.9757 L 31.9676,213.9757 z M 29.00276,210.30187 L 29.00276,213.40734 L 30.49104,213.40734 C 31.06135,213.40735 31.49201,213.27551 31.78303,213.01184 C 32.07404,212.74817 32.21955,212.36047 32.21956,211.84875 C 32.21955,211.33704 32.07404,210.95129 31.78303,210.69152 C 31.49201,210.43177 31.06135,210.30188 30.49104,210.30187 L 29.00276,210.30187 z M 36.16292,209.32922 L 41.69417,209.32922 L 41.69417,210.32531 L 37.34651,210.32531 L 37.34651,212.91516 L 41.51253,212.91516 L 41.51253,213.91125 L 37.34651,213.91125 L 37.34651,217.08117 L 41.79964,217.08117 L 41.79964,218.07727 L 36.16292,218.07727 L 36.16292,209.32922 z M 43.75667,209.32922 L 45.52034,209.32922 L 47.75276,215.28234 L 49.9969,209.32922 L 51.76057,209.32922 L 51.76057,218.07727 L 50.60628,218.07727 L 50.60628,210.39562 L 48.35042,216.39562 L 47.16096,216.39562 L 44.9051,210.39562 L 44.9051,218.07727 L 43.75667,218.07727 L 43.75667,209.32922 z M 61.29378,210.36047 L 58.3055,215.03039 L 61.29378,215.03039 L 61.29378,210.36047 z M 60.98323,209.32922 L 62.47151,209.32922 L 62.47151,215.03039 L 63.71956,215.03039 L 63.71956,216.01477 L 62.47151,216.01477 L 62.47151,218.07727 L 61.29378,218.07727 L 61.29378,216.01477 L 57.34456,216.01477 L 57.34456,214.87219 L 60.98323,209.32922 z "
     id="flowRoot5073" />
  <path
     style="fill:black;fill-opacity:1;fill-rule:evenodd;stroke:none;stroke-width:0.64814949;stroke-linecap:round;stroke-miterlimit:4;stroke-opacity:1"
     d="M 0.03125,201.3125 L 0.03125,201.65625 L 0.03125,225.875 L 0.03125,226.1875 L 0.34375,226.1875 L 78.28125,226.1875 L 78.59375,226.1875 L 78.59375,225.875 L 78.59375,201.65625 L 78.59375,201.3125 L 78.28125,201.3125 L 0.34375,201.3125 L 0.03125,201.3125 z M 0.6875,201.96875 L 77.9375,201.96875 L 77.9375,225.5625 L 0.6875,225.5625 L 0.6875,201.96875 z "
     id="rect5081" />
  <path
     style=""
     d="M 18.8426,278.96882 L 20.43635,278.96882 L 24.31526,286.28718 L 24.31526,278.96882 L 25.4637,278.96882 L 25.4637,287.71686 L 23.86995,287.71686 L 19.99104,280.39851 L 19.99104,287.71686 L 18.8426,287.71686 L 18.8426,278.96882 z M 31.9676,283.6153 C 32.22151,283.70124 32.46858,283.88484 32.70882,284.16608 C 32.94904,284.44734 33.19025,284.83405 33.43245,285.32624 L 34.63362,287.71686 L 33.36214,287.71686 L 32.243,285.47272 C 31.95393,284.88679 31.67365,284.49812 31.40217,284.30671 C 31.13069,284.11531 30.76057,284.0196 30.29182,284.0196 L 29.00276,284.0196 L 29.00276,287.71686 L 27.81917,287.71686 L 27.81917,278.96882 L 30.49104,278.96882 C 31.49104,278.96883 32.23713,279.17781 32.72932,279.59577 C 33.2215,280.01375 33.4676,280.64461 33.4676,281.48835 C 33.4676,282.03914 33.33967,282.49617 33.08382,282.85944 C 32.82795,283.22273 32.45588,283.47468 31.9676,283.6153 L 31.9676,283.6153 z M 29.00276,279.94147 L 29.00276,283.04694 L 30.49104,283.04694 C 31.06135,283.04695 31.49201,282.91511 31.78303,282.65143 C 32.07404,282.38777 32.21955,282.00007 32.21956,281.48835 C 32.21955,280.97664 32.07404,280.59089 31.78303,280.33112 C 31.49201,280.07136 31.06135,279.94148 30.49104,279.94147 L 29.00276,279.94147 z M 36.16292,278.96882 L 41.69417,278.96882 L 41.69417,279.96491 L 37.34651,279.96491 L 37.34651,282.55476 L 41.51253,282.55476 L 41.51253,283.55085 L 37.34651,283.55085 L 37.34651,286.72077 L 41.79964,286.72077 L 41.79964,287.71686 L 36.16292,287.71686 L 36.16292,278.96882 z M 43.75667,278.96882 L 45.52034,278.96882 L 47.75276,284.92194 L 49.9969,278.96882 L 51.76057,278.96882 L 51.76057,287.71686 L 50.60628,287.71686 L 50.60628,280.03522 L 48.35042,286.03522 L 47.16096,286.03522 L 44.9051,280.03522 L 44.9051,287.71686 L 43.75667,287.71686 L 43.75667,278.96882 z M 61.62776,283.00007 C 62.19416,283.12117 62.63654,283.37312 62.95491,283.75593 C 63.27326,284.13874 63.43244,284.6114 63.43245,285.1739 C 63.43244,286.03718 63.13557,286.70515 62.54182,287.1778 C 61.94807,287.65046 61.10432,287.88679 60.01057,287.88679 C 59.64338,287.88679 59.26545,287.85065 58.87678,287.77839 C 58.48811,287.70612 58.08674,287.59772 57.67268,287.45319 L 57.67268,286.31061 C 58.00081,286.50202 58.36018,286.64655 58.75081,286.74421 C 59.14143,286.84187 59.54963,286.89069 59.97542,286.89069 C 60.7176,286.89069 61.28303,286.74421 61.67171,286.45124 C 62.06037,286.15827 62.25471,285.73249 62.25471,285.1739 C 62.25471,284.65827 62.07404,284.25495 61.71272,283.96393 C 61.35139,283.67292 60.84846,283.52742 60.20393,283.52741 L 59.1844,283.52741 L 59.1844,282.55476 L 60.25081,282.55476 C 60.83283,282.55476 61.27815,282.43855 61.58675,282.20612 C 61.89533,281.97371 62.04963,281.63875 62.04964,281.20124 C 62.04963,280.75203 61.89045,280.4073 61.5721,280.16706 C 61.25373,279.92683 60.79768,279.80672 60.20393,279.80671 C 59.87971,279.80672 59.53205,279.84187 59.16096,279.91218 C 58.78987,279.9825 58.38167,280.09187 57.93635,280.2403 L 57.93635,279.18561 C 58.38557,279.06062 58.80647,278.96687 59.19905,278.90436 C 59.59162,278.84187 59.96174,278.81062 60.3094,278.81061 C 61.20783,278.81062 61.91877,279.01472 62.44221,279.42292 C 62.96565,279.83113 63.22736,280.38289 63.22737,281.07819 C 63.22736,281.56257 63.08869,281.97175 62.81135,282.30573 C 62.534,282.63972 62.13947,282.87117 61.62776,283.00007 L 61.62776,283.00007 z "
     id="flowRoot5085" />
  <path
     style="fill:black;fill-opacity:1;fill-rule:evenodd;stroke:none;stroke-width:0.64814949;stroke-linecap:round;stroke-miterlimit:4;stroke-opacity:1"
     d="M 0.03125,270.96875 L 0.03125,271.28125 L 0.03125,295.53125 L 0.03125,295.84375 L 0.34375,295.84375 L 78.28125,295.84375 L 78.59375,295.84375 L 78.59375,295.53125 L 78.59375,271.28125 L 78.59375,270.96875 L 78.28125,270.96875 L 0.34375,270.96875 L 0.03125,270.96875 z M 0.6875,271.625 L 77.9375,271.625 L 77.9375,295.1875 L 0.6875,295.1875 L 0.6875,271.625 z "
     id="rect5093" />
  <path
     style=""
     d="M 18.90351,346.56782 L 20.49726,346.56782 L 24.37617,353.88618 L 24.37617,346.56782 L 25.52461,346.56782 L 25.52461,355.31586 L 23.93086,355.31586 L 20.05195,347.99751 L 20.05195,355.31586 L 18.90351,355.31586 L 18.90351,346.56782 z M 32.02851,351.2143 C 32.28242,351.30024 32.52949,351.48384 32.76973,351.76508 C 33.00995,352.04634 33.25116,352.43306 33.49336,352.92524 L 34.69453,355.31586 L 33.42305,355.31586 L 32.30391,353.07172 C 32.01484,352.48579 31.73456,352.09712 31.46308,351.90571 C 31.1916,351.71431 30.82148,351.6186 30.35273,351.6186 L 29.06367,351.6186 L 29.06367,355.31586 L 27.88008,355.31586 L 27.88008,346.56782 L 30.55195,346.56782 C 31.55195,346.56783 32.29804,346.77681 32.79023,347.19477 C 33.28241,347.61275 33.52851,348.24361 33.52851,349.08735 C 33.52851,349.63814 33.40058,350.09517 33.14473,350.45844 C 32.88886,350.82173 32.51679,351.07368 32.02851,351.2143 L 32.02851,351.2143 z M 29.06367,347.54047 L 29.06367,350.64594 L 30.55195,350.64594 C 31.12226,350.64595 31.55292,350.51411 31.84394,350.25043 C 32.13495,349.98677 32.28046,349.59907 32.28047,349.08735 C 32.28046,348.57564 32.13495,348.18989 31.84394,347.93012 C 31.55292,347.67036 31.12226,347.54048 30.55195,347.54047 L 29.06367,347.54047 z M 36.22383,346.56782 L 41.75508,346.56782 L 41.75508,347.56391 L 37.40742,347.56391 L 37.40742,350.15376 L 41.57344,350.15376 L 41.57344,351.14985 L 37.40742,351.14985 L 37.40742,354.31977 L 41.86055,354.31977 L 41.86055,355.31586 L 36.22383,355.31586 L 36.22383,346.56782 z M 43.81758,346.56782 L 45.58125,346.56782 L 47.81367,352.52094 L 50.05781,346.56782 L 51.82148,346.56782 L 51.82148,355.31586 L 50.66719,355.31586 L 50.66719,347.63422 L 48.41133,353.63422 L 47.22187,353.63422 L 44.96601,347.63422 L 44.96601,355.31586 L 43.81758,355.31586 L 43.81758,346.56782 z M 59.12226,354.31977 L 63.25312,354.31977 L 63.25312,355.31586 L 57.69844,355.31586 L 57.69844,354.31977 C 58.14765,353.85493 58.75996,353.23091 59.53535,352.4477 C 60.31074,351.6645 60.79804,351.15962 60.99726,350.93305 C 61.37617,350.50728 61.64081,350.14692 61.79121,349.852 C 61.9416,349.55708 62.01679,349.26704 62.0168,348.98188 C 62.01679,348.51704 61.8537,348.13814 61.52754,347.84516 C 61.20136,347.5522 60.77656,347.40572 60.25312,347.40571 C 59.88203,347.40572 59.49043,347.47017 59.07832,347.59907 C 58.66621,347.72798 58.22578,347.92329 57.75703,348.18501 L 57.75703,346.98969 C 58.23359,346.79829 58.6789,346.65376 59.09297,346.5561 C 59.50703,346.45845 59.88593,346.40962 60.22969,346.40961 C 61.13593,346.40962 61.85859,346.63619 62.39766,347.0893 C 62.93671,347.54243 63.20624,348.1479 63.20625,348.90571 C 63.20624,349.26509 63.13886,349.60591 63.0041,349.92817 C 62.86933,350.25044 62.62421,350.63032 62.26875,351.06782 C 62.17109,351.1811 61.86054,351.50825 61.33711,352.04926 C 60.81367,352.59028 60.07539,353.34712 59.12226,354.31977 L 59.12226,354.31977 z "
     id="flowRoot5097" />
  <path
     style="fill:black;fill-opacity:1;fill-rule:evenodd;stroke:none;stroke-width:0.64814949;stroke-linecap:round;stroke-miterlimit:4;stroke-opacity:1"
     d="M 0.09375,338.5625 L 0.09375,338.90625 L 0.09375,363.125 L 0.09375,363.4375 L 0.40625,363.4375 L 78.34375,363.4375 L 78.65625,363.4375 L 78.65625,363.125 L 78.65625,338.90625 L 78.65625,338.5625 L 78.34375,338.5625 L 0.40625,338.5625 L 0.09375,338.5625 z M 0.75,339.21875 L 78,339.21875 L 78,362.78125 L 0.75,362.78125 L 0.75,339.21875 z "
     id="rect5105" />
  <path
     style=""
     d="M 32.96058,417.4504 C 33.21448,417.53634 33.46155,417.71994 33.70179,418.00118 C 33.94202,418.28244 34.18323,418.66915 34.42543,419.16134 L 35.6266,421.55196 L 34.35511,421.55196 L 33.23597,419.30782 C 32.9469,418.72189 32.66663,418.33322 32.39515,418.14181 C 32.12366,417.95041 31.75355,417.8547 31.2848,417.8547 L 29.99574,417.8547 L 29.99574,421.55196 L 28.81214,421.55196 L 28.81214,412.80392 L 31.48402,412.80392 C 32.48401,412.80393 33.23011,413.01291 33.7223,413.43087 C 34.21448,413.84885 34.46058,414.47971 34.46058,415.32345 C 34.46058,415.87424 34.33265,416.33127 34.07679,416.69454 C 33.82093,417.05783 33.44886,417.30978 32.96058,417.4504 L 32.96058,417.4504 z M 29.99574,413.77657 L 29.99574,416.88204 L 31.48402,416.88204 C 32.05433,416.88205 32.48499,416.75021 32.77601,416.48653 C 33.06702,416.22287 33.21253,415.83517 33.21254,415.32345 C 33.21253,414.81174 33.06702,414.42599 32.77601,414.16622 C 32.48499,413.90647 32.05433,413.77658 31.48402,413.77657 L 29.99574,413.77657 z M 37.15589,412.80392 L 42.68714,412.80392 L 42.68714,413.80001 L 38.33949,413.80001 L 38.33949,416.38986 L 42.5055,416.38986 L 42.5055,417.38595 L 38.33949,417.38595 L 38.33949,420.55587 L 42.79261,420.55587 L 42.79261,421.55196 L 37.15589,421.55196 L 37.15589,412.80392 z M 44.74964,412.80392 L 46.51332,412.80392 L 48.74574,418.75704 L 50.98988,412.80392 L 52.75355,412.80392 L 52.75355,421.55196 L 51.59925,421.55196 L 51.59925,413.87032 L 49.34339,419.87032 L 48.15394,419.87032 L 45.89808,413.87032 L 45.89808,421.55196 L 44.74964,421.55196 L 44.74964,412.80392 z "
     id="flowRoot5109" />
  <path
     style="fill:black;fill-opacity:1;fill-rule:evenodd;stroke:none;stroke-width:0.64814949;stroke-linecap:round;stroke-miterlimit:4;stroke-opacity:1"
     d="M 0,404.8125 L 0,405.125 L 0,429.34375 L 0,429.6875 L 0.3125,429.6875 L 78.25,429.6875 L 78.5625,429.6875 L 78.5625,429.34375 L 78.5625,405.125 L 78.5625,404.8125 L 78.25,404.8125 L 0.3125,404.8125 L 0,404.8125 z M 0.65625,405.4375 L 77.90625,405.4375 L 77.90625,429.03125 L 0.65625,429.03125 L 0.65625,405.4375 z "
     id="rect5117" />
  <path
     style="fill:black;fill-opacity:1;fill-rule:evenodd;stroke:none;stroke-width:0.64814949;stroke-linecap:round;stroke-miterlimit:4;stroke-opacity:1"
     d="M 0.0625,474.40625 L 0.0625,474.71875 L 0.0625,498.9375 L 0.0625,499.28125 L 0.375,499.28125 L 78.3125,499.28125 L 78.625,499.28125 L 78.625,498.9375 L 78.625,474.71875 L 78.625,474.40625 L 78.3125,474.40625 L 0.375,474.40625 L 0.0625,474.40625 z M 0.71875,475.0625 L 77.96875,475.0625 L 77.96875,498.625 L 0.71875,498.625 L 0.71875,475.0625 z "
     id="rect5129" />
  <g
     id="g1962">
    <path
       style="fill:black;fill-opacity:1;fill-rule:evenodd;stroke:none;stroke-width:1.18314552px;stroke-linecap:butt;stroke-linejoin:miter;stroke-opacity:1"
       d="M 84.8125,78 L 84.8125,79.15625 L 95.15625,79.15625 L 95.15625,416.1875 L 88.90625,416.1875 L 88.90625,417.375 L 95.75,417.375 L 96.34375,417.375 L 96.34375,416.78125 L 96.34375,78.5625 L 96.34375,78 L 95.75,78 L 84.8125,78 z "
       id="path5155" />
    <path
       id="path1968"
       style="fill-rule:evenodd;stroke:black;stroke-width:0.47325821pt;marker-start:none"
       d="M 84.160558,416.78755 L 81.794267,419.15384 L 90.076286,416.78755 L 81.794267,414.42126 L 84.160558,416.78755 z " />
    <path
       id="path1970"
       style="fill-rule:evenodd;stroke:black;stroke-width:0.47325821pt;marker-start:none"
       d="M 89.540722,78.578045 L 91.907013,76.211754 L 83.624994,78.578045 L 91.907013,80.944336 L 89.540722,78.578045 z " />
  </g>
  <g
     id="g1972">
    <path
       style="fill:black;fill-opacity:1;fill-rule:evenodd;stroke:none;stroke-width:1.246104px;stroke-linecap:butt;stroke-linejoin:miter;stroke-opacity:1"
       d="M 85.90625,12.375 L 85.90625,13.625 L 103.09375,13.625 L 103.09375,486.75 L 89.03125,486.75 L 89.03125,488 L 103.71875,488 L 104.34375,488 L 104.34375,487.375 L 104.34375,13 L 104.34375,12.375 L 103.71875,12.375 L 85.90625,12.375 z "
       id="path5157" />
    <path
       id="path1978"
       style="fill-rule:evenodd;stroke:black;stroke-width:0.4984416pt;marker-start:none"
       d="M 84.054304,487.38446 L 81.562096,489.87667 L 90.284824,487.38446 L 81.562096,484.89225 L 84.054304,487.38446 z " />
    <path
       id="path1980"
       style="fill-rule:evenodd;stroke:black;stroke-width:0.4984416pt;marker-start:none"
       d="M 90.894686,12.991291 L 93.386894,10.499083 L 84.664166,12.991291 L 93.386894,15.483499 L 90.894686,12.991291 z " />
  </g>
  <g
     id="g1982">
    <path
       style="fill:black;fill-opacity:1;fill-rule:evenodd;stroke:none;stroke-width:0.75313938px;stroke-linecap:butt;stroke-linejoin:miter;stroke-opacity:1"
       d="M 41.03125,97.03125 L 41.03125,126.71875 L 41.78125,126.71875 L 41.78125,97.03125 L 41.03125,97.03125 z "
       id="path6960" />
    <path
       id="path1988"
       style="fill-rule:evenodd;stroke:black;stroke-width:0.6025115pt;marker-start:none"
       d="M 41.41625,130.19346 L 38.403692,124.98174 L 44.428808,124.98174 L 41.41625,130.19346 z " />
  </g>
  <g
     id="g1990">
    <path
       style="fill:black;fill-opacity:1;fill-rule:evenodd;stroke:none;stroke-width:0.75313938px;stroke-linecap:butt;stroke-linejoin:miter;stroke-opacity:1"
       d="M 40.03125,164.625 L 40.03125,194.28125 L 40.78125,194.28125 L 40.78125,164.625 L 40.03125,164.625 z "
       id="path6962" />
    <path
       id="path1996"
       style="fill-rule:evenodd;stroke:black;stroke-width:0.6025115pt;marker-start:none"
       d="M 40.4061,197.77215 L 37.393542,192.56043 L 43.418658,192.56043 L 40.4061,197.77215 z " />
  </g>
  <g
     id="g1998">
    <path
       style="fill:black;fill-opacity:1;fill-rule:evenodd;stroke:none;stroke-width:0.75313938px;stroke-linecap:butt;stroke-linejoin:miter;stroke-opacity:1"
       d="M 40.03125,233.21875 L 40.03125,262.90625 L 40.78125,262.90625 L 40.78125,233.21875 L 40.03125,233.21875 z "
       id="path6964" />
    <path
       id="path2004"
       style="fill-rule:evenodd;stroke:black;stroke-width:0.6025115pt;marker-start:none"
       d="M 40.4061,266.3813 L 37.393542,261.16958 L 43.418658,261.16958 L 40.4061,266.3813 z " />
  </g>
  <g
     id="g2006">
    <path
       style="fill:black;fill-opacity:1;fill-rule:evenodd;stroke:none;stroke-width:0.75313938px;stroke-linecap:butt;stroke-linejoin:miter;stroke-opacity:1"
       d="M 40.03125,300.96875 L 40.03125,330.625 L 40.78125,330.625 L 40.78125,300.96875 L 40.03125,300.96875 z "
       id="path6966" />
    <path
       id="path2012"
       style="fill-rule:evenodd;stroke:black;stroke-width:0.6025115pt;marker-start:none"
       d="M 40.4061,334.10214 L 37.393542,328.89042 L 43.418658,328.89042 L 40.4061,334.10214 z " />
  </g>
  <g
     id="g2014">
    <path
       style="fill:black;fill-opacity:1;fill-rule:evenodd;stroke:none;stroke-width:0.75313938px;stroke-linecap:butt;stroke-linejoin:miter;stroke-opacity:1"
       d="M 40.03125,368.5625 L 40.03125,398.25 L 40.78125,398.25 L 40.78125,368.5625 L 40.03125,368.5625 z "
       id="path6968" />
    <path
       id="path2020"
       style="fill-rule:evenodd;stroke:black;stroke-width:0.6025115pt;marker-start:none"
       d="M 40.4061,401.72144 L 37.393542,396.50972 L 43.418658,396.50972 L 40.4061,401.72144 z " />
  </g>
  <g
     id="g2022">
    <path
       style="fill:black;fill-opacity:1;fill-rule:evenodd;stroke:none;stroke-width:0.75313938px;stroke-linecap:butt;stroke-linejoin:miter;stroke-opacity:1"
       d="M 40.03125,437.28125 L 40.03125,466.96875 L 40.78125,466.96875 L 40.78125,437.28125 L 40.03125,437.28125 z "
       id="path6970" />
    <path
       id="path2028"
       style="fill-rule:evenodd;stroke:black;stroke-width:0.6025115pt;marker-start:none"
       d="M 40.4061,470.43212 L 37.393542,465.2204 L 43.418658,465.2204 L 40.4061,470.43212 z " />
  </g>
  <g
     id="g2030">
    <path
       style="fill:black;fill-opacity:1;fill-rule:evenodd;stroke:none;stroke-width:0.75313938px;stroke-linecap:butt;stroke-linejoin:miter;stroke-opacity:1"
       d="M 40.03125,30.375 L 40.03125,60.0625 L 40.78125,60.0625 L 40.78125,30.375 L 40.03125,30.375 z "
       id="path6073" />
    <path
       id="path2036"
       style="fill-rule:evenodd;stroke:black;stroke-width:0.6025115pt;marker-start:none"
       d="M 40.4061,63.523392 L 37.393542,58.311668 L 43.418658,58.311668 L 40.4061,63.523392 z " />
  </g>
  <path
     transform="translate(105.9469,-13.24336)"
     style=""
     d="M -101.60742,499.93507 L -101.60742,503.14015 L -99.708984,503.14015 C -99.072271,503.14015 -98.600591,503.00831 -98.293945,502.74464 C -97.987311,502.48097 -97.833991,502.07765 -97.833984,501.53468 C -97.833991,500.98781 -97.987311,500.58449 -98.293945,500.32472 C -98.600591,500.06496 -99.072271,499.93507 -99.708984,499.93507 L -101.60742,499.93507 z M -101.60742,496.33741 L -101.60742,498.97413 L -99.855469,498.97413 C -99.277348,498.97414 -98.846685,498.86574 -98.563477,498.64894 C -98.280279,498.43215 -98.138678,498.10109 -98.138672,497.65577 C -98.138678,497.21437 -98.280279,496.8843 -98.563477,496.66554 C -98.846685,496.4468 -99.277348,496.33742 -99.855469,496.33741 L -101.60742,496.33741 z M -102.79102,495.36476 L -99.767578,495.36476 C -98.865239,495.36477 -98.169928,495.55227 -97.681641,495.92726 C -97.193366,496.30227 -96.949226,496.83547 -96.949219,497.52687 C -96.949226,498.06203 -97.074226,498.48781 -97.324219,498.80421 C -97.574225,499.12062 -97.941412,499.31789 -98.425781,499.39601 C -97.843756,499.52101 -97.391608,499.78175 -97.069336,500.17823 C -96.747078,500.57472 -96.585945,501.06984 -96.585938,501.66359 C -96.585945,502.44484 -96.85157,503.04835 -97.382813,503.47413 C -97.914069,503.89991 -98.669927,504.1128 -99.650391,504.1128 L -102.79102,504.1128 L -102.79102,495.36476 z M -90.808594,498.55812 C -90.929692,498.48781 -91.061528,498.43605 -91.204102,498.40284 C -91.346684,498.36965 -91.50391,498.35305 -91.675781,498.35304 C -92.28516,498.35305 -92.752933,498.55129 -93.079102,498.94777 C -93.405276,499.34425 -93.568362,499.91359 -93.568359,500.65577 L -93.568359,504.1128 L -94.652344,504.1128 L -94.652344,497.5503 L -93.568359,497.5503 L -93.568359,498.56984 C -93.341799,498.1714 -93.046878,497.87551 -92.683594,497.68214 C -92.320316,497.48879 -91.87891,497.39211 -91.359375,497.3921 C -91.285161,497.39211 -91.20313,497.39699 -91.113281,497.40675 C -91.023442,497.41652 -90.923833,497.43117 -90.814453,497.4507 L -90.808594,498.55812 z M -89.666016,497.5503 L -88.587891,497.5503 L -88.587891,504.1128 L -89.666016,504.1128 L -89.666016,497.5503 z M -89.666016,494.99562 L -88.587891,494.99562 L -88.587891,496.36085 L -89.666016,496.36085 L -89.666016,494.99562 z M -80.724609,500.56202 L -80.724609,501.08937 L -85.681641,501.08937 C -85.634767,501.83156 -85.411135,502.39699 -85.010742,502.78566 C -84.610354,503.17433 -84.052738,503.36866 -83.337891,503.36866 C -82.923833,503.36866 -82.522466,503.31788 -82.133789,503.21632 C -81.745123,503.11476 -81.359381,502.96242 -80.976563,502.75929 L -80.976563,503.77882 C -81.363287,503.94288 -81.759771,504.06788 -82.166016,504.15382 C -82.572271,504.23976 -82.984379,504.28273 -83.402344,504.28273 C -84.449222,504.28273 -85.278323,503.97804 -85.889648,503.36866 C -86.500978,502.75929 -86.806641,501.93507 -86.806641,500.89601 C -86.806641,499.82179 -86.516603,498.96926 -85.936523,498.33839 C -85.356447,497.70754 -84.574222,497.39211 -83.589844,497.3921 C -82.707036,497.39211 -82.008795,497.67629 -81.495117,498.24464 C -80.981452,498.81301 -80.724616,499.58547 -80.724609,500.56202 L -80.724609,500.56202 z M -81.802734,500.24562 C -81.810553,499.65578 -81.975591,499.18508 -82.297852,498.83351 C -82.620122,498.48195 -83.046879,498.30617 -83.578125,498.30616 C -84.179691,498.30617 -84.661136,498.47609 -85.022461,498.81593 C -85.383791,499.15578 -85.591799,499.63429 -85.646484,500.25148 L -81.802734,500.24562 z M -75.632813,494.99562 L -75.632813,495.8921 L -76.664063,495.8921 C -77.050784,495.89211 -77.319339,495.97023 -77.469727,496.12648 C -77.62012,496.28273 -77.695315,496.56398 -77.695313,496.97023 L -77.695313,497.5503 L -75.919922,497.5503 L -75.919922,498.3882 L -77.695313,498.3882 L -77.695313,504.1128 L -78.779297,504.1128 L -78.779297,498.3882 L -79.810547,498.3882 L -79.810547,497.5503 L -78.779297,497.5503 L -78.779297,497.09327 C -78.779298,496.36281 -78.609376,495.83059 -78.269531,495.49659 C -77.92969,495.16262 -77.390628,494.99563 -76.652344,494.99562 L -75.632813,494.99562 z M -71.542969,497.5503 L -70.464844,497.5503 L -69.117188,502.6714 L -67.775391,497.5503 L -66.503906,497.5503 L -65.15625,502.6714 L -63.814453,497.5503 L -62.736328,497.5503 L -64.453125,504.1128 L -65.724609,504.1128 L -67.136719,498.7339 L -68.554688,504.1128 L -69.826172,504.1128 L -71.542969,497.5503 z M -58.113281,500.81398 C -58.984378,500.81398 -59.587893,500.91359 -59.923828,501.1128 C -60.259768,501.31203 -60.427736,501.65187 -60.427734,502.13234 C -60.427736,502.51515 -60.30176,502.81886 -60.049805,503.04347 C -59.797854,503.26808 -59.455081,503.38038 -59.021484,503.38038 C -58.423832,503.38038 -57.94434,503.16847 -57.583008,502.74464 C -57.221685,502.32081 -57.041021,501.75734 -57.041016,501.05421 L -57.041016,500.81398 L -58.113281,500.81398 z M -55.962891,500.36866 L -55.962891,504.1128 L -57.041016,504.1128 L -57.041016,503.11671 C -57.287114,503.51515 -57.593755,503.80909 -57.960938,503.99855 C -58.328129,504.188 -58.777347,504.28273 -59.308594,504.28273 C -59.980471,504.28273 -60.51465,504.09425 -60.911133,503.7173 C -61.307618,503.34034 -61.50586,502.83546 -61.505859,502.20265 C -61.50586,501.46437 -61.25879,500.90773 -60.764648,500.53273 C -60.27051,500.15773 -59.533206,499.97023 -58.552734,499.97023 L -57.041016,499.97023 L -57.041016,499.86476 C -57.041021,499.36867 -57.204107,498.98488 -57.530273,498.71339 C -57.85645,498.44191 -58.314457,498.30617 -58.904297,498.30616 C -59.2793,498.30617 -59.644534,498.35109 -60,498.44093 C -60.355471,498.53078 -60.697267,498.66554 -61.025391,498.84523 L -61.025391,497.84913 C -60.630861,497.6968 -60.248049,497.58254 -59.876953,497.50636 C -59.505862,497.43019 -59.144534,497.39211 -58.792969,497.3921 C -57.843754,497.39211 -57.134771,497.6382 -56.666016,498.13038 C -56.197272,498.62258 -55.962897,499.36867 -55.962891,500.36866 L -55.962891,500.36866 z M -53.777344,494.99562 L -52.693359,494.99562 L -52.693359,500.38038 L -49.476563,497.5503 L -48.099609,497.5503 L -51.580078,500.62062 L -47.953125,504.1128 L -49.359375,504.1128 L -52.693359,500.90773 L -52.693359,504.1128 L -53.777344,504.1128 L -53.777344,494.99562 z M -46.775391,497.5503 L -45.697266,497.5503 L -45.697266,504.1128 L -46.775391,504.1128 L -46.775391,497.5503 z M -46.775391,494.99562 L -45.697266,494.99562 L -45.697266,496.36085 L -46.775391,496.36085 L -46.775391,494.99562 z M -37.992188,500.15187 L -37.992188,504.1128 L -39.070313,504.1128 L -39.070313,500.18702 C -39.070318,499.56593 -39.191412,499.10109 -39.433594,498.79249 C -39.675786,498.4839 -40.039067,498.32961 -40.523438,498.3296 C -41.105472,498.32961 -41.564456,498.51515 -41.900391,498.88624 C -42.23633,499.25734 -42.404299,499.7632 -42.404297,500.40382 L -42.404297,504.1128 L -43.488281,504.1128 L -43.488281,497.5503 L -42.404297,497.5503 L -42.404297,498.56984 C -42.146487,498.17531 -41.842776,497.88039 -41.493164,497.68507 C -41.143558,497.48976 -40.740238,497.39211 -40.283203,497.3921 C -39.529302,497.39211 -38.95899,497.62551 -38.572266,498.0923 C -38.185553,498.5591 -37.992194,499.24562 -37.992188,500.15187 L -37.992188,500.15187 z M -31.511719,500.75538 C -31.511724,499.97414 -31.672857,499.36867 -31.995117,498.93898 C -32.317387,498.50929 -32.769535,498.29445 -33.351563,498.29445 C -33.929691,498.29445 -34.379885,498.50929 -34.702148,498.93898 C -35.024416,499.36867 -35.185549,499.97414 -35.185547,500.75538 C -35.185549,501.53273 -35.024416,502.13624 -34.702148,502.56593 C -34.379885,502.99562 -33.929691,503.21046 -33.351563,503.21046 C -32.769535,503.21046 -32.317387,502.99562 -31.995117,502.56593 C -31.672857,502.13624 -31.511724,501.53273 -31.511719,500.75538 L -31.511719,500.75538 z M -30.433594,503.29835 C -30.4336,504.41554 -30.681647,505.24659 -31.177734,505.79152 C -31.673833,506.33644 -32.433598,506.6089 -33.457031,506.6089 C -33.835941,506.6089 -34.193362,506.58058 -34.529297,506.52394 C -34.865236,506.46729 -35.191408,506.38038 -35.507813,506.2632 L -35.507813,505.21437 C -35.191408,505.38624 -34.878908,505.51319 -34.570313,505.59523 C -34.261721,505.67726 -33.947269,505.71827 -33.626953,505.71827 C -32.919926,505.71827 -32.39063,505.5337 -32.039063,505.16456 C -31.687505,504.79542 -31.511724,504.2378 -31.511719,503.49171 L -31.511719,502.95851 C -31.73438,503.34523 -32.019536,503.63429 -32.367188,503.8257 C -32.714848,504.0171 -33.130863,504.1128 -33.615234,504.1128 C -34.419924,504.1128 -35.068361,503.80616 -35.560547,503.19288 C -36.052735,502.5796 -36.298829,501.7671 -36.298828,500.75538 C -36.298829,499.73976 -36.052735,498.92531 -35.560547,498.31202 C -35.068361,497.69875 -34.419924,497.39211 -33.615234,497.3921 C -33.130863,497.39211 -32.714848,497.48781 -32.367188,497.67921 C -32.019536,497.87062 -31.73438,498.15969 -31.511719,498.5464 L -31.511719,497.5503 L -30.433594,497.5503 L -30.433594,503.29835 z "
     id="flowRoot1923" />
</svg>
